<?xml version="1.0" standalone="no"?>
<!DOCTYPE svg PUBLIC "-//W3C//DTD SVG 20010904//EN"
 "http://www.w3.org/TR/2001/REC-SVG-20010904/DTD/svg10.dtd">
<svg version="1.0" xmlns="http://www.w3.org/2000/svg"
 width="1251.000000pt" height="1251.000000pt" viewBox="0 0 1251.000000 1251.000000"
 preserveAspectRatio="xMidYMid meet">

<g transform="translate(0.000000,1251.000000) scale(0.100000,-0.100000)"
fill="#000000" stroke="none">
<path d="M5955 10999 c-1630 -107 -3094 -1011 -3928 -2424 -340 -576 -570
-1263 -641 -1915 -9 -80 -18 -163 -21 -185 -2 -22 -7 -146 -11 -275 -34 -1198
380 -2373 1165 -3305 103 -123 373 -397 501 -509 828 -727 1839 -1146 2950
-1222 156 -10 525 -8 685 6 643 52 1212 207 1780 485 512 249 924 544 1325
945 624 623 1060 1382 1285 2234 234 889 207 1884 -77 2756 -242 746 -627
1382 -1173 1939 -416 424 -851 736 -1387 995 -560 271 -1179 433 -1808 475
-159 10 -489 11 -645 0z m473 -1969 c448 -622 886 -1393 1062 -1870 172 -467
139 -1019 -84 -1398 -180 -306 -475 -511 -861 -599 -63 -14 -123 -18 -280 -18
-173 0 -214 3 -304 23 -542 122 -901 499 -1013 1065 -17 89 -22 147 -22 282 0
339 54 522 304 1030 250 508 530 976 948 1583 l85 124 23 -29 c13 -15 77 -102
142 -193z m2263 184 c93 -46 147 -217 136 -428 -9 -184 -78 -397 -149 -461
-42 -38 -64 -43 -107 -20 -67 34 -111 130 -147 321 -23 124 -15 332 16 424 39
115 67 151 137 175 40 14 70 11 114 -11z m-4684 -13 c125 -90 138 -401 28
-666 -97 -235 -179 -293 -272 -193 -34 36 -49 83 -68 203 -23 148 -17 340 15
440 27 84 71 174 96 197 63 56 140 63 201 19z m582 -186 c38 -33 45 -56 31
-100 -14 -44 -44 -65 -91 -65 -50 0 -89 39 -89 89 0 86 85 129 149 76z m3359
-10 c52 -60 11 -155 -67 -155 -47 0 -77 21 -91 64 -13 41 -2 75 37 106 36 28
88 22 121 -15z m161 -540 c102 -24 176 -70 271 -166 47 -48 114 -125 150 -172
109 -143 138 -142 245 11 128 183 192 231 296 219 112 -14 179 -85 179 -193 0
-46 -6 -61 -49 -126 -27 -40 -102 -135 -166 -211 -63 -76 -142 -178 -175 -227
-68 -101 -90 -120 -141 -120 -56 0 -85 29 -110 113 -47 163 -134 298 -220 343
-47 24 -126 44 -176 44 -212 0 -473 193 -473 350 0 55 18 84 72 111 77 40 191
49 297 24z m-3412 -33 c122 -63 112 -167 -31 -307 -108 -106 -186 -139 -393
-164 -101 -13 -156 -38 -217 -99 -52 -52 -127 -192 -147 -277 -16 -68 -25 -83
-62 -105 -69 -43 -101 -24 -196 113 -38 56 -126 169 -194 250 -200 240 -222
292 -166 402 33 67 86 95 179 95 58 0 73 -4 113 -31 43 -29 110 -109 187 -224
42 -63 56 -75 95 -75 40 0 47 6 138 121 149 188 236 262 356 306 58 21 79 23
181 20 93 -3 123 -7 157 -25z m4852 -890 c62 -46 77 -103 54 -204 -37 -165
-153 -313 -344 -440 -203 -135 -260 -259 -210 -455 12 -45 21 -113 21 -151 0
-102 6 -111 41 -59 102 154 256 280 396 322 62 19 184 19 229 0 108 -45 71
-239 -75 -397 -76 -82 -150 -135 -269 -190 -201 -93 -230 -109 -294 -168 -93
-84 -111 -83 -247 11 -56 39 -186 113 -289 164 -107 54 -210 113 -241 139
-153 127 -213 278 -141 359 36 42 92 59 187 59 189 -1 356 -114 511 -346 l71
-105 6 65 c9 83 -2 219 -26 312 -50 195 -159 303 -391 387 -97 35 -183 85
-315 183 -112 83 -143 125 -146 200 -2 51 21 84 80 119 39 23 61 28 136 31
229 11 366 -72 526 -318 89 -137 83 -136 111 -29 6 24 40 103 76 175 81 166
158 255 267 309 116 57 222 67 276 27z m-6347 -21 c73 -28 149 -85 205 -153
68 -83 154 -257 192 -392 l17 -58 79 123 c125 194 226 278 376 314 137 32 260
12 329 -54 34 -32 40 -44 40 -79 0 -76 -25 -118 -109 -181 -167 -126 -245
-171 -386 -222 -198 -72 -311 -191 -359 -379 -19 -74 -32 -278 -22 -333 l7
-37 69 103 c111 166 244 282 368 323 80 27 232 26 286 0 102 -51 100 -164 -5
-303 -60 -80 -157 -147 -339 -235 -91 -44 -206 -108 -256 -143 -171 -118 -177
-119 -275 -31 -73 66 -92 77 -283 166 -170 79 -274 162 -349 280 -61 97 -83
198 -57 265 22 58 144 81 263 50 138 -36 257 -123 370 -270 l72 -95 7 43 c3
23 7 63 7 89 1 25 10 86 22 135 45 189 -7 298 -208 434 -141 95 -237 193 -291
296 -43 83 -72 175 -72 228 0 44 30 96 70 123 31 21 44 23 105 20 39 -3 95
-15 127 -27z m6635 -1666 c58 -27 106 -88 117 -151 8 -41 -15 -221 -50 -389
-186 -890 -689 -1620 -1474 -2140 -436 -289 -881 -469 -1405 -568 -438 -83
-935 -84 -1383 -1 -950 174 -1785 689 -2361 1454 -285 379 -520 831 -646 1245
-59 194 -40 286 72 352 91 53 216 30 278 -51 15 -20 40 -79 56 -137 62 -213
187 -503 310 -722 79 -140 247 -389 345 -512 115 -143 369 -397 509 -509 454
-361 977 -598 1540 -695 220 -39 317 -46 590 -46 270 0 341 6 580 46 510 84
1023 308 1445 629 659 503 1033 1140 1155 1965 20 137 44 183 118 225 67 38
130 40 204 5z m-5517 -507 c1057 -214 1699 -772 1791 -1555 12 -99 8 -397 -5
-411 -12 -11 -349 -6 -461 8 -430 51 -769 203 -1025 461 -256 258 -415 596
-485 1031 -20 126 -36 377 -28 450 l6 57 31 -6 c17 -3 96 -19 176 -35z m4087
-140 c-9 -265 -44 -477 -114 -688 -41 -125 -144 -343 -204 -432 -316 -469
-806 -705 -1481 -711 -102 -1 -189 1 -193 5 -16 15 -27 163 -21 286 35 770
566 1339 1500 1607 132 38 463 113 505 114 12 1 13 -29 8 -181z"/>
<path d="M6853 7259 c-20 -13 -38 -37 -49 -65 l-17 -45 36 -117 c55 -177 70
-273 70 -457 1 -229 -34 -395 -123 -591 -16 -37 -30 -81 -30 -98 0 -103 120
-170 208 -116 60 36 149 260 195 485 29 148 31 467 3 620 -39 212 -93 357
-145 388 -40 23 -108 22 -148 -4z"/>
<path d="M4680 4875 c0 -12 73 -107 132 -173 77 -85 182 -180 373 -336 88 -71
206 -176 263 -231 l102 -101 0 35 c0 95 -77 270 -170 385 -153 191 -395 350
-620 406 -25 6 -53 13 -62 16 -10 3 -18 2 -18 -1z"/>
<path d="M7734 4855 c-363 -107 -677 -400 -755 -703 -35 -137 -32 -139 79 -28
53 54 181 168 284 252 230 189 336 290 419 395 77 97 84 109 67 108 -7 0 -49
-11 -94 -24z"/>
</g>
</svg>
